<?xml version="1.0" encoding="UTF-8" standalone="no"?>
<svg
   xmlns:dc="http://purl.org/dc/elements/1.1/"
   xmlns:cc="http://creativecommons.org/ns#"
   xmlns:rdf="http://www.w3.org/1999/02/22-rdf-syntax-ns#"
   xmlns:svg="http://www.w3.org/2000/svg"
   xmlns="http://www.w3.org/2000/svg"
   xmlns:sodipodi="http://sodipodi.sourceforge.net/DTD/sodipodi-0.dtd"
   xmlns:inkscape="http://www.inkscape.org/namespaces/inkscape"
   width="165.4281mm"
   height="166.22987mm"
   viewBox="0 0 165.4281 166.22987"
   version="1.1"
   id="svg12803"
   sodipodi:docname="GearAnimation.svg"
   inkscape:version="1.0.1 (3bc2e813f5, 2020-09-07)">
  <defs
     id="defs12797">
    <marker
       style="overflow:visible"
       id="marker7084-0-4-6"
       refX="0"
       refY="0"
       orient="auto"
       inkscape:stockid="Arrow1Lend"
       inkscape:isstock="true">
      <path
         transform="matrix(-0.8,0,0,-0.8,-10,0)"
         style="fill:#000000;fill-opacity:1;fill-rule:evenodd;stroke:#000000;stroke-width:1pt;stroke-opacity:1"
         d="M 0,0 5,-5 -12.5,0 5,5 Z"
         id="path7082-1-3-3" />
    </marker>
    <marker
       style="overflow:visible"
       id="marker7084-0-4-6-8"
       refX="0"
       refY="0"
       orient="auto"
       inkscape:stockid="Arrow1Lend"
       inkscape:isstock="true">
      <path
         transform="matrix(-0.8,0,0,-0.8,-10,0)"
         style="fill:#000000;fill-opacity:1;fill-rule:evenodd;stroke:#000000;stroke-width:1pt;stroke-opacity:1"
         d="M 0,0 5,-5 -12.5,0 5,5 Z"
         id="path7082-1-3-3-4" />
    </marker>
  </defs>
  <sodipodi:namedview
     id="base"
     pagecolor="#ffffff"
     bordercolor="#666666"
     borderopacity="1.0"
     inkscape:pageopacity="0.0"
     inkscape:pageshadow="2"
     inkscape:zoom="0.35"
     inkscape:cx="290.48598"
     inkscape:cy="473.58882"
     inkscape:document-units="mm"
     inkscape:current-layer="layer8"
     inkscape:document-rotation="0"
     showgrid="false"
     inkscape:window-width="1920"
     inkscape:window-height="1017"
     inkscape:window-x="2552"
     inkscape:window-y="-8"
     inkscape:window-maximized="1" />
  <metadata
     id="metadata12800">
    <rdf:RDF>
      <cc:Work
         rdf:about="">
        <dc:format>image/svg+xml</dc:format>
        <dc:type
           rdf:resource="http://purl.org/dc/dcmitype/StillImage" />
      </cc:Work>
    </rdf:RDF>
  </metadata>
  <g
     inkscape:label="Layer 1 (100)"
     inkscape:groupmode="layer"
     id="layer1"
     style="display:inline;opacity:1"
     transform="translate(-28.975585,-22.862959)">
    <path
       style="fill:#86cc00;fill-opacity:0.815686;stroke-width:0.264583"
       d="m 122.99097,95.638525 c -0.59728,0.369433 -1.16926,0.419657 -2.49589,0.219192 -0.94657,-0.143046 -3.78437,-0.567715 -6.30618,-0.94369 l -4.58512,-0.683664 -1.55849,1.853557 c -0.85716,1.019474 -1.7726,2.106797 -2.03429,2.416297 -0.48935,0.578764 -0.13315,1.775563 3.09255,10.384093 0.98542,2.63001 0.77614,3.00317 -2.87889,5.13277 -3.81438,2.22241 -10.077688,5.35176 -11.334503,5.66308 -2.02478,0.50152 -2.37985,0.13901 -8.226332,-8.39892 l -1.067719,-1.55927 -1.077794,0.1647 c -0.592786,0.0906 -2.158143,0.22979 -3.478593,0.30924 l -2.400786,0.14453 -1.23057,2.42176 c -0.676766,1.332 -1.893027,3.84327 -2.702729,5.58066 -0.966005,2.07269 -1.673166,3.29204 -2.056634,3.54627 -0.865844,0.57399 -2.675667,0.16573 -9.992419,-2.25396 -7.221073,-2.38803 -7.415215,-2.50167 -7.353014,-4.30399 0.01956,-0.56654 0.390393,-3.16507 0.824096,-5.77457 1.066759,-6.41826 1.051396,-6.10421 0.320263,-6.55104 -0.344338,-0.21041 -1.441942,-1.13104 -2.439133,-2.04579 l -1.813089,-1.663139 -1.232726,0.379469 c -0.677997,0.208716 -3.159781,1.12414 -5.515069,2.03425 -2.355275,0.91006 -4.580802,1.67752 -4.94559,1.70541 -1.266388,0.0968 -2.149032,-1.11636 -6.039573,-8.301024 -1.513305,-2.79463 -3.119193,-6.699833 -3.07357,-7.474343 0.02228,-0.380082 0.196178,-0.944319 0.38602,-1.253938 0.288957,-0.470606 4.777999,-3.752442 8.907639,-6.512144 l 1.042835,-0.696895 -0.248167,-2.269699 c -0.136485,-1.248355 -0.227213,-2.615459 -0.201613,-3.038052 0.05385,-0.890439 -0.350362,-1.260384 -2.358346,-2.158109 -3.019346,-1.349871 -8.638626,-4.327324 -9.178055,-4.863043 -0.308294,-0.306224 -0.573266,-0.76282 -0.588821,-1.014655 -0.01553,-0.251815 1.070934,-3.939914 2.414396,-8.195773 1.997562,-6.327491 2.536239,-7.804449 2.956047,-8.102966 0.587375,-0.417673 2.166375,-0.274724 8.884413,0.804411 2.460549,0.395245 4.502401,0.699912 4.537436,0.677038 0.03502,-0.02295 0.831962,-0.985659 1.770954,-2.139541 0.938993,-1.153877 1.857194,-2.20219 2.040443,-2.329596 0.232227,-0.161449 -0.29389,-2.00347 -1.736209,-6.078758 -2.281381,-6.446061 -2.316392,-6.87039 -0.667387,-8.085741 1.392362,-1.026175 10.479226,-5.748974 12.486095,-6.489483 2.65225,-0.978656 2.828572,-0.871395 6.007102,3.654143 1.478387,2.104929 3.029329,4.293909 3.446565,4.864441 l 0.758597,1.037312 3.135835,-0.297768 c 1.724711,-0.163756 3.253666,-0.260689 3.397664,-0.215377 0.285145,0.08972 0.521769,-0.302028 1.830392,-3.030006 3.085961,-6.433004 4.12091,-8.278121 4.860002,-8.664417 0.740726,-0.38716 0.79427,-0.374249 8.504158,2.050785 l 7.758739,2.440425 0.49456,0.900856 c 0.27695,0.504432 0.40945,1.171492 0.30114,1.51589 -0.10637,0.338271 -0.50729,2.778701 -0.89083,5.423197 -0.38354,2.644466 -0.74601,5.086459 -0.80545,5.42661 -0.0893,0.511106 0.31165,0.988643 2.30954,2.750696 l 2.41762,2.13225 1.16741,-0.350279 c 1.11259,-0.333798 6.31598,-2.268148 8.99643,-3.344357 2.57219,-1.032749 3.31308,-0.2446 7.64302,8.130562 2.79349,5.403259 3.44897,7.388374 2.79259,8.457391 -0.34285,0.558396 -3.76766,3.066319 -8.07552,5.913564 -1.92985,1.275516 -2.22398,1.684233 -1.92497,2.674967 0.10034,0.332485 0.23679,1.557696 0.30318,2.722684 0.0664,1.165021 0.16297,2.209907 0.21458,2.321964 0.0516,0.112066 1.89176,1.035085 4.08924,2.051119 5.16816,2.389586 7.12071,3.549106 7.63403,4.533476 l 0.40402,0.774819 -2.42049,7.695366 c -2.39586,7.617218 -2.42829,7.700281 -3.19529,8.174656 z"
       id="path6896-9"
       sodipodi:nodetypes="csscsssssscsscsssssssscsscsscscssssscsscssssssscssssscssssscsssssssssscscc"
       inkscape:export-filename="C:\Users\mario\OneDrive\Documents\Courses\Web development\CSS - MySite\Images\gear.png"
       inkscape:export-xdpi="300"
       inkscape:export-ydpi="300" />
    <path
       style="fill:#ff9100;fill-opacity:1;stroke-width:0.264583"
       d="m 127.72339,185.79828 c -0.45085,-0.53847 -0.58217,-1.09743 -0.57296,-2.43911 0.007,-0.95729 0.0221,-3.82663 0.0346,-6.3763 l 0.0227,-4.63576 -2.05688,-1.27818 c -1.13131,-0.703 -2.33808,-1.45396 -2.68173,-1.66885 -0.64265,-0.40181 -1.77642,0.12137 -9.83684,4.542 -2.46261,1.35047 -2.86178,1.19654 -5.49092,-2.11738 -2.74376,-3.45841 -6.73445,-9.21133 -7.221818,-10.4109 -0.785183,-1.93255 -0.477046,-2.33568 7.139768,-9.34014 l 1.391,-1.27921 -0.31672,-1.0433 c -0.17425,-0.57378 -0.53524,-2.1033 -0.80223,-3.3989 l -0.48547,-2.35564 -2.57254,-0.87256 c -1.41488,-0.47989 -4.07395,-1.32552 -5.909062,-1.87915 -2.189288,-0.6605 -3.497043,-1.1865 -3.803351,-1.5298 -0.691611,-0.77513 -0.545694,-2.62467 0.805678,-10.21172 1.333711,-7.48788 1.418492,-7.69622 3.21125,-7.89173 0.563543,-0.0613 3.188415,-0.065 5.833055,-0.008 6.5048,0.1404 6.19179,0.17 6.52974,-0.61738 0.15915,-0.37084 0.91382,-1.58853 1.67698,-2.70598 l 1.38758,-2.03177 -0.55145,-1.16602 c -0.30327,-0.64127 -1.56329,-2.96713 -2.80002,-5.16853 -1.23673,-2.2014 -2.31374,-4.29469 -2.39337,-4.65178 -0.2764,-1.23963 0.79844,-2.28629 7.35474,-7.161821 2.55022,-1.896418 6.18643,-4.042862 6.95951,-4.108182 0.3794,-0.03221 0.96267,0.05948 1.29619,0.203237 0.507,0.21886 4.39554,4.193933 7.71607,7.887746 l 0.83851,0.93276 2.2111,-0.56936 c 1.2161,-0.31311 2.55632,-0.59793 2.97822,-0.63284 0.88898,-0.0739 1.19754,-0.52656 1.79969,-2.642068 0.90543,-3.180987 3.05095,-9.167497 3.50427,-9.77781 0.25911,-0.348839 0.67323,-0.676215 0.92027,-0.727529 0.24706,-0.05129 4.05241,0.498037 8.45637,1.220756 6.5477,1.074666 8.0864,1.397168 8.44174,1.770096 0.49719,0.521799 0.58089,2.105046 0.47097,8.908345 -0.0403,2.49175 -0.0506,4.55617 -0.023,4.5876 0.0277,0.0315 1.09426,0.68286 2.37025,1.4477 1.276,0.76479 2.44459,1.52407 2.59682,1.68728 0.19293,0.20685 1.94108,-0.57662 5.76896,-2.58545 6.05479,-3.17744 6.46978,-3.27263 7.90789,-1.81382 1.2143,1.23175 7.18485,9.5521 8.20404,11.43283 1.34694,2.48557 1.26592,2.67536 -2.76002,6.46686 -1.87254,1.76352 -3.81793,3.61081 -4.32312,4.10515 l -0.91852,0.89879 0.74198,3.06132 c 0.4081,1.68374 0.72209,3.18322 0.69781,3.33221 -0.0481,0.29502 0.37333,0.47336 3.26007,1.3795 6.80738,2.13689 8.78128,2.89809 9.26903,3.57453 0.48886,0.67793 0.48369,0.73276 -0.81689,8.70971 l -1.30882,8.02749 -0.82112,0.618 c -0.45978,0.34605 -1.10112,0.57235 -1.45745,0.51425 -0.34999,-0.057 -2.82264,-0.10577 -5.4948,-0.10821 -2.67216,-0.002 -5.14086,-0.0129 -5.48601,-0.0232 -0.51865,-0.0154 -0.93408,0.44947 -2.39319,2.67826 l -1.76562,2.69703 0.51319,1.10551 c 0.4891,1.05361 3.14582,5.9279 4.59332,8.42745 1.38908,2.3986 0.71467,3.24431 -6.95731,8.72454 -4.94958,3.53558 -6.82091,4.46749 -7.97261,3.97031 -0.60159,-0.25972 -3.57234,-3.29181 -7.00491,-7.14953 -1.53776,-1.72817 -1.98422,-1.961 -2.9222,-1.52375 -0.31475,0.14672 -1.50797,0.45655 -2.65161,0.68841 -1.1436,0.23191 -2.16403,0.47649 -2.2676,0.54357 -0.10355,0.0671 -0.75467,2.02006 -1.44691,4.33998 -1.62801,5.45613 -2.49721,7.55411 -3.39828,8.20257 l -0.7093,0.51042 -7.96189,-1.29817 c -7.88106,-1.28493 -7.9679,-1.30519 -8.54685,-1.99668 z"
       id="path6896-7-8"
       sodipodi:nodetypes="csscsssssscsscsssssssscsscsscscssssscsscssssssscssssscssssscsssssssssscscc"
       inkscape:export-filename="C:\Users\mario\OneDrive\Documents\Courses\Web development\CSS - MySite\Images\gear.png"
       inkscape:export-xdpi="300"
       inkscape:export-ydpi="300" />
  </g>
  <g
     inkscape:groupmode="layer"
     id="layer5"
     inkscape:label="Layer 2 (100)"
     style="display:inline"
     transform="translate(-28.975585,-22.862959)">
    <path
       style="fill:#86cc00;fill-opacity:0.815686;stroke-width:0.264583"
       d="m 117.23398,104.30755 c -0.66104,0.23718 -1.23097,0.16739 -2.48693,-0.30452 -0.89614,-0.33672 -3.58363,-1.34212 -5.97217,-2.2342 l -4.34278,-1.62202 -1.90981,1.48903 c -1.05039,0.81898 -2.17189,1.69221 -2.49221,1.94054 -0.598991,0.46437 -0.499399,1.70908 0.866,10.80015 0.41707,2.77742 0.13477,3.09892 -3.883148,4.42205 -4.193095,1.3808 -10.97016,3.13954 -12.26424,3.18275 -2.084805,0.0696 -2.356749,-0.35879 -6.30033,-9.92573 l -0.720199,-1.74719 -1.088482,-0.063 c -0.598677,-0.0346 -2.15876,-0.22392 -3.466876,-0.42074 l -2.378362,-0.35784 -1.707191,2.11299 c -0.938915,1.16219 -2.650721,3.3657 -3.803954,4.89679 -1.37583,1.82654 -2.321054,2.87222 -2.749001,3.04117 -0.96626,0.38142 -2.651646,-0.39424 -9.305437,-4.28225 -6.566776,-3.83718 -6.733047,-3.98871 -6.297482,-5.73871 0.136923,-0.55009 1.039918,-3.01474 2.006687,-5.47704 2.377878,-6.056215 2.297558,-5.752224 1.675303,-6.341307 -0.293066,-0.277395 -1.175275,-1.406117 -1.960489,-2.508201 l -1.427681,-2.003764 -1.284684,0.11488 c -0.706576,0.06319 -3.324454,0.44262 -5.817497,0.843152 -2.493019,0.400486 -4.829476,0.68846 -5.192091,0.639894 -1.258834,-0.168656 -1.869967,-1.538773 -4.181715,-9.375324 -0.899199,-3.048193 -1.658057,-7.201943 -1.452401,-7.950043 0.100815,-0.367143 0.388226,-0.882895 0.638293,-1.146277 0.380486,-0.400246 5.453765,-2.677041 10.066937,-4.517837 l 1.164939,-0.464847 0.229153,-2.271698 c 0.12604,-1.249455 0.321537,-2.605544 0.434443,-3.013581 0.237802,-0.859784 -0.08066,-1.305685 -1.858115,-2.601277 -2.672714,-1.948129 -7.550151,-6.028833 -7.96641,-6.664998 -0.237889,-0.363632 -0.40214,-0.865339 -0.364995,-1.114905 0.0372,-0.249535 1.866685,-3.631157 4.065632,-7.514696 3.269472,-5.773904 4.103454,-7.106589 4.576152,-7.311298 0.661379,-0.286425 2.176153,0.181693 8.523022,2.634005 2.324603,0.898185 4.258493,1.62072 4.297518,1.605628 0.03903,-0.01515 1.018711,-0.791144 2.17709,-1.724584 1.158379,-0.933435 2.274471,-1.767934 2.480205,-1.854456 0.260719,-0.109639 0.129077,-2.020793 -0.434424,-6.306901 -0.891316,-6.779525 -0.837339,-7.201861 1.028317,-8.047806 1.57529,-0.714262 11.445507,-3.444592 13.562482,-3.751667 2.797766,-0.405837 2.947936,-0.26426 5.116094,4.823238 1.008441,2.366305 2.070376,4.829909 2.359876,5.474723 l 0.526349,1.172364 3.12922,0.360716 c 1.721067,0.19841 3.236766,0.421483 3.368196,0.495743 0.26026,0.147048 0.573162,-0.186947 2.420367,-2.583234 4.356024,-5.650819 5.751976,-7.240438 6.555233,-7.464627 0.805036,-0.224694 0.854725,-0.200932 7.891936,3.774085 l 7.0818,4.000227 0.29646,0.983996 c 0.16601,0.550989 0.15693,1.23102 -0.0206,1.545374 -0.17437,0.308764 -1.07393,2.612508 -1.99891,5.119472 -0.92497,2.506937 -1.78724,4.820204 -1.9161,5.140565 -0.19361,0.481371 0.0993,1.031834 1.68716,3.170766 l 1.92148,2.588308 1.21472,-0.09991 c 1.15768,-0.09518 6.64954,-0.905417 9.49517,-1.400811 2.7307,-0.475394 3.29153,0.449572 5.78557,9.541962 1.60904,5.865986 1.83747,7.944003 0.97317,8.853191 -0.45146,0.474909 -4.32285,2.215969 -9.12855,4.105342 -2.15287,0.846404 -2.52556,1.185036 -2.43907,2.216289 0.029,0.346083 -0.0922,1.572888 -0.26952,2.726222 -0.17727,1.153366 -0.3,2.195507 -0.27287,2.315834 0.0272,0.120355 1.63522,1.405787 3.57343,2.856499 4.5584,3.411891 6.2272,4.95203 6.52464,6.021613 l 0.23411,0.84189 -3.96756,7.023956 c -3.92721,6.952635 -3.9762,7.027145 -4.82507,7.331685 z"
       id="path6896-9-0"
       sodipodi:nodetypes="csscsssssscsscsssssssscsscsscscssssscsscssssssscssssscssssscsssssssssscscc"
       inkscape:export-filename="C:\Users\mario\OneDrive\Documents\Courses\Web development\CSS - MySite\Images\gear.png"
       inkscape:export-xdpi="300"
       inkscape:export-ydpi="300" />
    <path
       style="fill:#ff9100;fill-opacity:1;stroke-width:0.264583"
       d="m 137.83822,188.20255 c -0.55296,-0.43296 -0.79761,-0.95241 -1.06756,-2.26668 -0.19217,-0.93784 -0.77398,-3.7476 -1.29186,-6.24416 l -0.94162,-4.53918 -2.27769,-0.82259 c -1.25274,-0.45243 -2.58928,-0.93608 -2.9701,-1.07483 -0.71215,-0.25942 -1.71237,0.48806 -8.67754,6.48795 -2.12802,1.83296 -2.55048,1.76538 -5.81116,-0.9295 -3.40285,-2.81236 -8.50243,-7.60986 -9.22855,-8.68188 -1.16983,-1.72708 -0.95224,-2.18546 5.04182,-10.6205 l 1.09464,-1.54045 -0.52671,-0.95464 c -0.28974,-0.52502 -0.96085,-1.94606 -1.49137,-3.15784 l -0.96464,-2.20323 -2.69773,-0.31863 c -1.48374,-0.17524 -4.26052,-0.44953 -6.170633,-0.60952 -2.278773,-0.19089 -3.667311,-0.4335 -4.038301,-0.70561 -0.837656,-0.6144 -1.07947,-2.45386 -1.335065,-10.15608 -0.252251,-7.60154 -0.212638,-7.82296 1.500295,-8.38693 0.538489,-0.1771 3.105219,-0.72649 5.703924,-1.22059 6.39184,-1.21509 6.09182,-1.12107 6.25869,-1.9615 0.0786,-0.39582 0.56357,-1.74381 1.07773,-2.9955 l 0.93483,-2.27587 -0.78183,-1.02589 c -0.42998,-0.5642 -2.14603,-2.57726 -3.81343,-4.47343 -1.66741,-1.89617 -3.1561,-3.71978 -3.30823,-4.05252 -0.5281,-1.15507 0.30564,-2.40233 5.70499,-8.53445 2.10021,-2.3852 5.21069,-5.240746 5.95329,-5.465372 0.36442,-0.110387 0.954,-0.141967 1.31012,-0.0707 0.54142,0.108667 5.17145,3.188402 9.18741,6.111122 l 1.01412,0.73804 2.04441,-1.01663 c 1.12442,-0.55911 2.37613,-1.11636 2.78156,-1.23822 0.85419,-0.25712 1.06189,-0.76403 1.21104,-2.95851 0.2243,-3.299728 1.07826,-9.601497 1.39479,-10.292723 0.18092,-0.39509 0.51792,-0.801409 0.7489,-0.902967 0.231,-0.101535 4.0674,-0.355388 8.52538,-0.564098 6.62806,-0.310162 8.20018,-0.314619 8.62529,-0.02372 0.59482,0.407025 1.00586,1.938272 2.31283,8.615755 0.47866,2.445683 0.89779,4.467133 0.93132,4.492143 0.0337,0.025 1.21233,0.44042 2.61945,0.92325 1.40713,0.48279 2.70804,0.98251 2.89087,1.11051 0.23173,0.16221 1.77879,-0.9676 5.10536,-3.72839 5.26185,-4.366868 5.64798,-4.546265 7.35796,-3.418335 1.44387,0.952365 9.01385,7.849555 10.40178,9.477285 1.83429,2.15121 1.7945,2.3537 -1.35517,6.89938 -1.46496,2.11431 -2.98376,4.3257 -3.37513,4.91428 l -0.71159,1.07012 1.36226,2.84015 c 0.74924,1.5621 1.36813,2.96353 1.37536,3.11431 0.0143,0.29858 0.46359,0.3854 3.47564,0.67155 7.10291,0.67486 9.19194,1.00903 9.80967,1.56928 0.61913,0.56147 0.62548,0.61618 1.01181,8.68922 l 0.38879,8.12419 -0.67468,0.77522 c -0.37779,0.43407 -0.95806,0.78878 -1.31868,0.80603 -0.35419,0.0171 -2.78292,0.4836 -5.39723,1.03657 -2.61418,0.55366 -5.0312,1.05622 -5.37095,1.11791 -0.51047,0.0931 -0.82023,0.63386 -1.78405,3.1173 l -1.1663,3.00519 0.73183,0.97466 c 0.69747,0.92889 4.30955,5.14431 6.2451,7.28828 1.85743,2.05738 1.37359,3.02483 -4.99134,9.9804 -4.10633,4.48739 -5.74301,5.788 -6.97291,5.54114 -0.64245,-0.12897 -4.17869,-2.47714 -8.33831,-5.53689 -1.86346,-1.37069 -2.34858,-1.5056 -3.17515,-0.88289 -0.27736,0.20895 -1.38009,0.76009 -2.45054,1.22467 -1.07038,0.46461 -2.01767,0.916 -2.10503,1.00314 -0.0873,0.0872 -0.31818,2.13283 -0.51296,4.54598 -0.45804,5.67538 -0.87205,7.90823 -1.6186,8.72987 l -0.58769,0.64673 -8.05781,0.38557 c -7.976,0.38172 -8.06515,0.37995 -8.77522,-0.17606 z"
       id="path6896-7-8-8"
       sodipodi:nodetypes="csscsssssscsscsssssssscsscsscscssssscsscssssssscssssscssssscsssssssssscscc"
       inkscape:export-filename="C:\Users\mario\OneDrive\Documents\Courses\Web development\CSS - MySite\Images\gear.png"
       inkscape:export-xdpi="300"
       inkscape:export-ydpi="300" />
  </g>
  <g
     inkscape:groupmode="layer"
     id="layer6"
     inkscape:label="Layer 3 (100) "
     style="display:inline;opacity:1"
     transform="translate(-28.975585,-22.862959)">
    <path
       style="fill:#86cc00;fill-opacity:0.815686;stroke-width:0.264583"
       d="m 111.14525,110.50312 c -0.69219,0.11879 -1.24134,-0.0489 -2.39627,-0.73174 -0.82406,-0.48722 -3.29613,-1.94402 -5.49348,-3.23731 l -3.99514,-2.3515 -2.139363,1.13478 c -1.176647,0.62413 -2.432743,1.28935 -2.791319,1.47829 -0.670525,0.3533 -0.788588,1.59639 -1.022583,10.78645 -0.07156,2.80765 -0.405399,3.07524 -4.592032,3.68057 -4.369166,0.63169 -11.348673,1.18689 -12.630597,1.00473 -2.065219,-0.29348 -2.258642,-0.76259 -4.481029,-10.86898 l -0.405863,-1.84571 -1.061003,-0.25105 c -0.583575,-0.13803 -2.087083,-0.59538 -3.341148,-1.01637 l -2.280089,-0.7654 -2.048174,1.78444 c -1.126461,0.98149 -3.194897,2.85428 -4.596482,4.16185 -1.672101,1.55988 -2.784546,2.42554 -3.23533,2.51761 -1.017814,0.20783 -2.542903,-0.84871 -8.420462,-5.83307 -5.800692,-4.91919 -5.938124,-5.09729 -5.205292,-6.74507 0.230365,-0.51796 1.547623,-2.78836 2.927279,-5.045375 3.393403,-5.551294 3.261516,-5.265869 2.751008,-5.954055 -0.240445,-0.32407 -0.913251,-1.588839 -1.495161,-2.810532 l -1.058041,-2.221236 -1.285115,-0.109949 c -0.706815,-0.06047 -3.350809,-0.141389 -5.875528,-0.179854 -2.52469,-0.03851 -4.875656,-0.16063 -5.224329,-0.271425 -1.210423,-0.384688 -1.574353,-1.840113 -2.490177,-9.959039 -0.356226,-3.158029 -0.382264,-7.380447 -0.04983,-8.081469 0.163037,-0.34406 0.535641,-0.802068 0.827645,-1.018025 0.444208,-0.328095 5.835774,-1.689335 10.698512,-2.701096 l 1.227961,-0.255495 0.620148,-2.197395 c 0.341091,-1.208586 0.7691,-2.510125 0.951146,-2.892358 0.383489,-0.805428 0.147295,-1.299854 -1.378179,-2.884416 -2.29382,-2.382645 -6.388551,-7.248311 -6.688018,-7.947093 -0.171131,-0.399418 -0.245767,-0.922023 -0.165848,-1.16135 0.07997,-0.239282 2.468868,-3.251843 5.308778,-6.69454 4.22243,-5.118448 5.27516,-6.286067 5.776224,-6.405583 0.701069,-0.167226 2.111542,0.556818 7.936148,4.073996 2.133319,1.288203 3.912362,2.335577 3.953415,2.327491 0.04107,-0.0081 1.140615,-0.602227 2.443486,-1.320336 1.30287,-0.718103 2.546915,-1.346117 2.764548,-1.395599 0.275796,-0.0627 0.478023,-1.967679 0.667358,-6.286522 0.299478,-6.831304 0.425973,-7.237851 2.41018,-7.746977 1.67539,-0.429864 11.869771,-1.404769 14.007909,-1.33957 2.825733,0.08615 2.949037,0.251658 4.200823,5.638363 0.582216,2.505469 1.200217,5.116048 1.373347,5.801337 l 0.314774,1.245953 3.019044,0.898619 c 1.660467,0.494256 3.1144,0.977138 3.230941,1.073093 0.230771,0.190008 0.596917,-0.08458 2.832169,-2.123697 5.271099,-4.808555 6.921879,-6.131619 7.751869,-6.212918 0.83182,-0.08149 0.87663,-0.04946 7.11667,5.087168 l 6.27958,5.169196 0.12109,1.020527 c 0.0678,0.571445 -0.0592,1.239568 -0.28864,1.518319 -0.22534,0.273794 -1.51127,2.386332 -2.85753,4.694589 -1.34624,2.308231 -2.59711,4.436623 -2.77964,4.729741 -0.27426,0.440437 -0.0814,1.033401 1.11093,3.415567 l 1.44283,2.882646 1.21362,0.112542 c 1.15662,0.107295 6.70574,0.263018 9.59416,0.26929 2.77177,0.006 3.16346,1.01431 4.04073,10.401652 0.56598,6.056275 0.4301,8.14239 -0.57895,8.88768 -0.52707,0.389299 -4.64198,1.431648 -9.70275,2.457817 -2.26714,0.459703 -2.69297,0.728475 -2.78687,1.75908 -0.0315,0.345861 -0.36393,1.53298 -0.73883,2.638001 -0.37486,1.105063 -0.67669,2.110059 -0.67087,2.233269 0.006,0.123249 1.36627,1.668383 3.02312,3.43362 3.89668,4.151616 5.27268,5.958142 5.37987,7.063123 l 0.0844,0.869753 -5.12698,6.228292 c -5.07486,6.16505 -5.13604,6.22992 -6.0249,6.38243 z"
       id="path6896-9-0-5"
       sodipodi:nodetypes="csscsssssscsscsssssssscsscsscscssssscsscssssssscssssscssssscsssssssssscscc"
       inkscape:export-filename="C:\Users\mario\OneDrive\Documents\Courses\Web development\CSS - MySite\Images\gear.png"
       inkscape:export-xdpi="300"
       inkscape:export-ydpi="300" />
    <path
       style="fill:#ff9100;fill-opacity:1;stroke-width:0.264583"
       d="m 146.50703,188.56861 c -0.61974,-0.33036 -0.95087,-0.79944 -1.44494,-2.04686 -0.35211,-0.89023 -1.41299,-3.55627 -2.35652,-5.92497 l -1.71554,-4.30671 -2.38593,-0.41458 c -1.31227,-0.22802 -2.71249,-0.47223 -3.11161,-0.54275 -0.74638,-0.13181 -1.60161,0.778 -7.41909,7.89623 -1.7774,2.17464 -2.20518,2.18144 -5.88428,0.0937 -3.83952,-2.17873 -9.6947,-6.01781 -10.59594,-6.94746 -1.45197,-1.4977 -1.31728,-1.9869 3.12099,-11.33465 l 0.81051,-1.70713 -0.68448,-0.84867 c -0.3765,-0.46674 -1.28418,-1.74965 -2.01706,-2.8509 l -1.33258,-2.00225 -2.71207,0.15467 c -1.49163,0.0851 -4.27385,0.29713 -6.18273,0.47126 -2.2773,0.20771 -3.686867,0.20991 -4.099474,0.006 -0.931621,-0.45961 -1.489179,-2.22913 -3.07837,-9.76996 -1.568413,-7.44225 -1.56785,-7.66719 0.02113,-8.52004 0.499552,-0.26793 2.93189,-1.25467 5.405314,-2.19252 6.08373,-2.30656 5.8046,-2.16187 5.82299,-3.01851 0.009,-0.40346 0.2522,-1.81518 0.5412,-3.13714 l 0.52542,-2.40363 -0.94809,-0.87454 c -0.52142,-0.48096 -2.56097,-2.16545 -4.5323,-3.74327 -1.97135,-1.57782 -3.754085,-3.11522 -3.961683,-3.41648 -0.720653,-1.04582 -0.116164,-2.41891 4.136323,-9.39546 1.65412,-2.71366 4.22148,-6.06595 4.9138,-6.41612 0.33971,-0.17199 0.91485,-0.30547 1.27794,-0.29712 0.55206,0.013 5.64654,2.24195 10.10901,4.4229 l 1.12688,0.55073 1.83681,-1.3562 c 1.01025,-0.74586 2.14618,-1.51201 2.52429,-1.70242 0.79656,-0.40154 0.91308,-0.93681 0.6789,-3.12386 -0.3521,-3.28854 -0.6054,-9.64286 -0.41371,-10.378551 0.10956,-0.420503 0.37089,-0.879167 0.58072,-1.019294 0.20986,-0.140104 3.9439,-1.056283 8.29791,-2.035943 6.4735,-1.456402 8.02096,-1.733786 8.49013,-1.521116 0.65646,0.297552 1.32716,1.734158 3.7738,8.083242 0.89608,2.325409 1.65986,4.243372 1.69723,4.262172 0.0375,0.0188 1.27039,0.22321 2.73997,0.45436 1.46959,0.23111 2.83751,0.49734 3.03979,0.59165 0.25638,0.1195 1.58375,-1.26179 4.38037,-4.558286 4.42361,-5.214235 4.77273,-5.457955 6.65259,-4.644097 1.58731,0.687171 10.23997,6.165062 11.88947,7.527053 2.17997,1.80001 2.17595,2.00633 -0.13652,7.02988 -1.07556,2.33658 -2.18728,4.77811 -2.4705,5.42571 l -0.51495,1.17743 1.83475,2.56045 c 1.00911,1.40826 1.86196,2.68093 1.89526,2.82817 0.0659,0.29156 0.52347,0.29904 3.53945,0.0578 7.11219,-0.5688 9.22751,-0.60246 9.93314,-0.15799 0.70722,0.44543 0.72298,0.49821 2.50531,8.38151 l 1.79363,7.93327 -0.52981,0.8806 c -0.29668,0.49307 -0.80654,0.94316 -1.15868,1.02277 -0.34584,0.0783 -2.65667,0.9595 -5.13524,1.95804 -2.47832,0.9992 -4.77135,1.91383 -5.09523,2.03358 -0.48655,0.18033 -0.6977,0.76666 -1.21563,3.37974 l -0.62674,3.16206 0.88996,0.83277 c 0.84818,0.79366 5.13738,4.31781 7.41582,6.09311 2.18647,1.70358 1.87798,2.74035 -3.18243,10.69551 -3.26472,5.13227 -4.65069,6.69733 -5.90477,6.66779 -0.65508,-0.0154 -4.54535,-1.71389 -9.1731,-4.00484 -2.07317,-1.02628 -2.57434,-1.0749 -3.28022,-0.31812 -0.23687,0.25394 -1.22714,0.98819 -2.20065,1.6316 -0.97344,0.64342 -1.82796,1.25245 -1.89886,1.35343 -0.0708,0.10104 0.057,2.15568 0.28423,4.56599 0.53444,5.6687 0.51445,7.93952 -0.0781,8.87831 l -0.46646,0.73896 -7.86844,1.77894 c -7.78854,1.76093 -7.87664,1.77467 -8.67248,1.35041 z"
       id="path6896-7-8-8-6"
       sodipodi:nodetypes="csscsssssscsscsssssssscsscsscscssssscsscssssssscssssscssssscsssssssssscscc"
       inkscape:export-filename="C:\Users\mario\OneDrive\Documents\Courses\Web development\CSS - MySite\Images\gear.png"
       inkscape:export-xdpi="300"
       inkscape:export-ydpi="300" />
  </g>
  <g
     inkscape:groupmode="layer"
     id="layer7"
     inkscape:label="Layer 4 (100)"
     style="display:inline"
     transform="translate(-28.975585,-22.862959)">
    <path
       style="display:inline;opacity:1;fill:#86cc00;fill-opacity:0.815686;stroke-width:0.264583"
       d="m 104.07436,115.5446 c -0.7023,-0.003 -1.21399,-0.26372 -2.2328,-1.13674 -0.72693,-0.62291 -2.908476,-2.48685 -4.847866,-4.14206 l -3.526114,-3.00952 -2.303914,0.74604 c -1.26715,0.41033 -2.619677,0.84732 -3.005616,0.97113 -0.721688,0.23149 -1.053817,1.4352 -2.880095,10.44501 -0.558016,2.75257 -0.93325,2.95812 -5.161392,2.82725 -4.412482,-0.1366 -11.382364,-0.80182 -12.613179,-1.20381 -1.982881,-0.64764 -2.091907,-1.14322 -2.525573,-11.48198 l -0.07919,-1.88815 -1.00129,-0.43147 c -0.550738,-0.23727 -1.951987,-0.94876 -3.113898,-1.58112 l -2.112539,-1.1497 -2.326922,1.40167 c -1.279781,0.77097 -3.642,2.25612 -5.249349,3.30045 -1.917568,1.24582 -3.163432,1.90516 -3.623355,1.91755 -1.038441,0.0279 -2.356894,-1.27739 -7.279635,-7.20665 -4.858358,-5.851736 -4.962775,-6.050995 -3.954942,-7.546487 0.316808,-0.470089 2.008304,-2.477257 3.758927,-4.46041 4.305822,-4.8777 4.126375,-4.619513 3.743125,-5.385894 -0.180518,-0.360898 -0.623477,-1.723284 -0.984402,-3.027464 l -0.656254,-2.371217 -1.246498,-0.331437 c -0.685577,-0.182289 -3.275351,-0.721102 -5.755036,-1.197397 -2.479646,-0.476332 -4.773689,-1.004839 -5.097826,-1.174496 -1.125234,-0.589032 -1.230903,-2.085542 -0.722978,-10.240153 0.197572,-3.17191 0.905145,-7.334703 1.35426,-7.967348 0.220305,-0.310521 0.666781,-0.69687 0.991849,-0.858839 0.494433,-0.245976 6.040467,-0.650299 11.005019,-0.802284 l 1.253672,-0.03838 0.992301,-2.056325 c 0.545777,-1.130994 1.193294,-2.338436 1.438948,-2.68325 0.517524,-0.726601 0.370775,-1.254531 -0.856368,-3.079914 -1.845231,-2.744765 -5.032838,-8.247553 -5.206413,-8.987722 -0.09917,-0.423066 -0.08193,-0.950692 0.03834,-1.172504 0.120306,-0.22176 2.996036,-2.773726 6.390621,-5.670976 5.047091,-4.30747 6.286582,-5.274545 6.800788,-5.305237 0.719456,-0.04295 1.982772,0.915025 7.108138,5.3902 1.877214,1.63908 3.447357,2.97947 3.48919,2.978636 0.04185,-8.46e-4 1.22786,-0.395013 2.635637,-0.875971 1.407773,-0.480952 2.741973,-0.8834 2.964893,-0.894339 0.282491,-0.01386 0.812444,-1.854776 1.74886,-6.075129 1.481173,-6.675518 1.676342,-7.053923 3.718814,-7.21076 1.724582,-0.132406 11.933376,0.677736 14.02771,1.113228 2.767845,0.575525 2.860535,0.75993 3.157912,6.282169 0.138301,2.568506 0.29359,5.24674 0.34509,5.951682 l 0.09364,1.281684 2.817134,1.409219 c 1.549414,0.775083 2.897407,1.503102 2.995515,1.617836 0.194272,0.227194 0.602537,0.02036 3.157921,-1.599631 6.02602,-3.820186 7.88145,-4.836496 8.71295,-4.772433 0.83335,0.06419 0.87191,0.103518 6.12519,6.245681 l 5.28655,6.181102 -0.058,1.026048 c -0.0325,0.574537 -0.27355,1.210456 -0.5479,1.445132 -0.26946,0.230505 -1.9027,2.087647 -3.62932,4.127063 -1.72661,2.039391 -3.32807,3.918235 -3.55872,4.175205 -0.34658,0.38612 -0.25961,1.003567 0.50094,3.556588 l 0.92035,3.089397 1.17564,0.321576 c 1.12041,0.306509 6.55819,1.423461 9.40164,1.931205 2.72862,0.487222 2.93926,1.548232 2.17311,10.945296 -0.49428,6.062545 -0.99034,8.093373 -2.11349,8.65212 -0.58666,0.29186 -4.82005,0.603827 -9.98213,0.735612 -2.31253,0.05903 -2.77856,0.249782 -3.04999,1.248424 -0.0911,0.335136 -0.6246,1.446495 -1.18569,2.469625 -0.56106,1.023182 -1.03283,1.960496 -1.04848,2.082847 -0.0155,0.122418 1.0558,1.880287 2.38095,3.906414 3.11656,4.765198 4.15795,6.783218 4.07164,7.890028 l -0.0679,0.87119 -6.13063,5.24338 c -6.06831,5.19015 -6.13983,5.24341 -7.04166,5.23926 z"
       id="path6896-9-0-5-0"
       sodipodi:nodetypes="csscsssssscsscsssssssscsscsscscssssscsscssssssscssssscssssscsssssssssscscc"
       inkscape:export-filename="C:\Users\mario\OneDrive\Documents\Courses\Web development\CSS - MySite\Images\gear.png"
       inkscape:export-xdpi="300"
       inkscape:export-ydpi="300" />
    <path
       style="display:inline;opacity:1;fill:#ff9100;fill-opacity:1;stroke-width:0.264583"
       d="m 155.11179,187.43382 c -0.66769,-0.21772 -1.07524,-0.62218 -1.77842,-1.76485 -0.50135,-0.81556 -2.00906,-3.25688 -3.34958,-5.42575 l -2.43733,-3.94338 -2.42167,0.006 c -1.33193,0.003 -2.75329,0.006 -3.15859,0.006 -0.75793,-2e-4 -1.44218,1.0443 -5.93521,9.06458 -1.37277,2.45024 -1.79288,2.53122 -5.77861,1.11407 -4.15953,-1.4789 -10.59241,-4.24292 -11.64138,-5.00195 -1.68999,-1.22281 -1.64229,-1.72797 1.10533,-11.7044 l 0.50176,-1.82194 -0.82146,-0.71692 c -0.45182,-0.39427 -1.56849,-1.50007 -2.48146,-2.45733 l -1.66002,-1.74043 -2.64402,0.62327 c -1.45418,0.34282 -4.15732,1.03476 -6.00696,1.53772 -2.20663,0.6 -3.59441,0.84694 -4.03616,0.71777 -0.99728,-0.29086 -1.85364,-1.93668 -4.728135,-9.08699 -2.836919,-7.05683 -2.875425,-7.27844 -1.458669,-8.39426 0.445434,-0.35061 2.669475,-1.74473 4.942464,-3.09784 5.59078,-3.32795 5.34102,-3.13699 5.21036,-3.98379 -0.0612,-0.39891 -0.0668,-1.83141 -0.0118,-3.18347 l 0.10005,-2.45835 -1.08554,-0.69663 c -0.59701,-0.38311 -2.89809,-1.68783 -5.11345,-2.89937 -2.215398,-1.21153 -4.23801,-2.416 -4.494767,-2.67664 -0.89131,-0.90479 -0.534439,-2.36199 2.441972,-9.97098 1.157778,-2.95967 3.104005,-6.70685 3.725015,-7.17192 0.30468,-0.22837 0.8479,-0.45969 1.20693,-0.51452 0.54593,-0.0831 5.95006,1.22738 10.72346,2.60029 l 1.20539,0.34669 1.5734,-1.65456 c 0.86538,-0.90995 1.85101,-1.86172 2.19032,-2.11489 0.71473,-0.53376 0.73653,-1.08114 0.12613,-3.19429 -0.9178,-3.17744 -2.27067,-9.391237 -2.20965,-10.149039 0.0349,-0.43314 0.2126,-0.930215 0.39491,-1.104651 0.18235,-0.174416 3.70056,-1.725087 7.81831,-3.445929 6.12225,-2.558387 7.59804,-3.100271 8.09701,-2.972303 0.69815,0.17904 1.60813,1.477354 5.12011,7.305128 1.28627,2.134478 2.37149,3.890674 2.41156,3.902694 0.0402,0.012 1.28985,-7.8e-4 2.77724,-0.0283 1.4874,-0.0276 2.88077,-0.003 3.09635,0.0548 0.27323,0.0732 1.34058,-1.51764 3.52228,-5.249681 3.45097,-5.90317 3.75246,-6.203812 5.74509,-5.728752 1.68252,0.401097 11.15495,4.293248 13.0159,5.348113 2.45942,1.394116 2.49129,1.597999 1.08628,6.94679 -0.65348,2.48785 -1.32434,5.08533 -1.49081,5.77228 l -0.30266,1.24896 2.25149,2.20295 c 1.23832,1.21163 2.29921,2.31687 2.35757,2.45609 0.11553,0.27569 0.56745,0.2036 3.49572,-0.55769 6.90537,-1.79518 8.98271,-2.19565 9.7548,-1.88047 0.77382,0.31586 0.79851,0.3651 3.92268,7.81914 l 3.14398,7.50129 -0.36885,0.95922 c -0.20655,0.53709 -0.63051,1.06889 -0.96347,1.20844 -0.32699,0.13717 -2.4497,1.40624 -4.71722,2.82001 -2.26716,1.41438 -4.36653,2.71329 -4.66469,2.88746 -0.44784,0.26209 -0.55397,0.87618 -0.61028,3.53949 l -0.0681,3.22286 1.02105,0.66557 c 0.97311,0.63432 5.80911,3.36012 8.36121,4.7128 2.44908,1.29802 2.32531,2.37261 -1.27682,11.08565 -2.32392,5.6212 -3.41706,7.40316 -4.65722,7.59184 -0.6478,0.0986 -4.77391,-0.89856 -9.72917,-2.35111 -2.21988,-0.65068 -2.72188,-0.61153 -3.28563,0.25633 -0.18917,0.2912 -1.0369,1.18626 -1.88389,1.98894 -0.84692,0.80269 -1.5827,1.55084 -1.63499,1.6626 -0.0522,0.1118 0.43046,2.11303 1.07279,4.44728 1.51068,5.48976 1.88531,7.72955 1.46478,8.75698 l -0.33105,0.80873 -7.43999,3.11826 c -7.36443,3.08665 -7.44881,3.11548 -8.30623,2.83586 z"
       id="path6896-7-8-8-6-6"
       sodipodi:nodetypes="csscsssssscsscsssssssscsscsscscssssscsscssssssscssssscssssscsssssssssscscc"
       inkscape:export-filename="C:\Users\mario\OneDrive\Documents\Courses\Web development\CSS - MySite\Images\gear.png"
       inkscape:export-xdpi="300"
       inkscape:export-ydpi="300" />
  </g>
  <g
     inkscape:groupmode="layer"
     id="layer8"
     inkscape:label="Layer 5 (100) "
     style="display:inline"
     transform="translate(-28.975585,-22.862959)">
    <path
       style="display:inline;opacity:1;fill:#86cc00;fill-opacity:0.815686;stroke-width:0.264583"
       d="m 96.227832,119.27958 c -0.69111,-0.12491 -1.149753,-0.47052 -2.001486,-1.50719 -0.607719,-0.73968 -2.432457,-2.95412 -4.054959,-4.92096 l -2.949943,-3.5761 -2.398467,0.33463 c -1.319152,0.18406 -2.727016,0.37955 -3.128592,0.43446 -0.750914,0.10265 -1.287021,1.2304 -4.650092,9.7862 -1.027522,2.61386 -1.432744,2.75113 -5.573924,1.88804 -4.321724,-0.90075 -11.070212,-2.76617 -12.212518,-3.37578 -1.840294,-0.98213 -1.861611,-1.48911 -0.493376,-11.7461 l 0.249877,-1.87322 -0.911154,-0.59879 c -0.501172,-0.3293 -1.757585,-1.27331 -2.792034,-2.09782 l -1.880803,-1.49907 -2.534966,0.97631 c -1.394215,0.53702 -3.978445,1.58941 -5.742721,2.33876 -2.10477,0.89392 -3.4462,1.3269 -3.901287,1.25923 -1.02751,-0.15284 -2.099271,-1.66725 -5.917619,-8.361257 -3.768405,-6.606483 -3.836635,-6.820845 -2.584424,-8.118608 0.393625,-0.407936 2.407965,-2.090887 4.476363,-3.739918 5.08741,-4.055898 4.865856,-3.832793 4.621509,-4.654082 -0.115106,-0.386764 -0.31476,-1.805369 -0.443733,-3.152412 l -0.234526,-2.44915 -1.170008,-0.542852 c -0.643507,-0.298569 -3.100373,-1.278907 -5.459678,-2.178559 -2.359261,-0.899681 -4.526678,-1.818514 -4.81643,-2.041881 -1.005855,-0.775477 -0.850052,-2.267601 1.06619,-10.210126 0.745367,-3.089412 2.165051,-7.066094 2.717201,-7.61114 0.270879,-0.267547 0.777661,-0.570498 1.125916,-0.673558 0.529635,-0.156382 6.061622,0.408495 10.977144,1.120905 l 1.24129,0.179901 1.334303,-1.852771 c 0.73388,-1.019041 1.58123,-2.095698 1.883028,-2.392615 0.635835,-0.625696 0.58299,-1.171089 -0.308536,-3.18183 -1.340574,-3.023488 -3.524205,-8.996198 -3.566614,-9.755263 -0.0242,-0.43386 0.0844,-0.950476 0.24136,-1.148034 0.156987,-0.1975 3.432172,-2.21133 7.278288,-4.475101 5.718399,-3.365613 7.10699,-4.102759 7.618714,-4.043695 0.715988,0.08263 1.793754,1.245429 6.064153,6.542627 1.564067,1.940153 2.877607,3.532833 2.918946,3.539275 0.04141,0.0064 1.277799,-0.175796 2.74771,-0.404989 1.469899,-0.229188 2.853714,-0.393841 3.075147,-0.365904 0.280605,0.0354 1.122175,-1.685519 2.777226,-5.679148 2.617859,-6.3169 2.875773,-6.655665 4.914448,-6.455448 1.721382,0.169077 11.634398,2.739649 13.621288,3.532201 2.625857,1.047414 2.685117,1.245113 2.019046,6.735096 -0.309817,2.5535 -0.621957,5.218011 -0.693641,5.921188 l -0.130384,1.278466 2.529626,1.876999 c 1.39128,1.03236 2.59238,1.983397 2.66907,2.113424 0.15187,0.257477 0.58984,0.124679 3.38772,-1.026962 6.59784,-2.715741 8.60156,-3.394419 9.40931,-3.186941 0.80954,0.207925 0.84068,0.253351 4.94758,7.214423 l 4.1329,7.005197 -0.23529,1.000389 c -0.13178,0.560165 -0.47959,1.144565 -0.79052,1.328035 -0.3054,0.180212 -2.23631,1.725531 -4.29084,3.434139 -2.05452,1.708586 -3.95791,3.280796 -4.22967,3.493808 -0.40837,0.320071 -0.42994,0.94324 -0.12427,3.589545 l 0.3699,3.202279 1.10194,0.520836 c 1.05016,0.496411 6.21137,2.540653 8.92346,3.534445 2.60256,0.953638 2.62574,2.035106 0.23946,11.156367 -1.53952,5.884612 -2.38069,7.798447 -3.58381,8.153673 -0.62842,0.185553 -4.85167,-0.24234 -9.95821,-1.008941 -2.28765,-0.343433 -2.77972,-0.236507 -3.22044,0.699832 -0.14791,0.314223 -0.86629,1.316059 -1.59652,2.226211 -0.73022,0.910212 -1.35758,1.751363 -1.39424,1.869138 -0.0365,0.117866 0.71325,2.03506 1.66644,4.260516 2.24174,5.23399 2.91689,7.40219 2.63969,8.47719 l -0.21815,0.84617 -6.94799,4.09915 c -6.877382,4.05755 -6.957064,4.09758 -7.844473,3.93689 z"
       id="path6896-9-0-5-0-7"
       sodipodi:nodetypes="csscsssssscsscsssssssscsscsscscssssscsscssssssscssssscssssscsssssssssscscc"
       inkscape:export-filename="C:\Users\mario\OneDrive\Documents\Courses\Web development\CSS - MySite\Images\gear.png"
       inkscape:export-xdpi="300"
       inkscape:export-ydpi="300" />
    <path
       style="display:inline;opacity:1;fill:#ff9100;fill-opacity:1;stroke-width:0.264583"
       d="m 163.39011,184.81725 c -0.69535,-0.0985 -1.16695,-0.42601 -2.05786,-1.42922 -0.63535,-0.71611 -2.54409,-2.85853 -4.24086,-4.76167 l -3.08507,-3.46024 -2.38384,0.42643 c -1.31118,0.23425 -2.71041,0.48401 -3.10957,0.5544 -0.74644,0.1314 -1.23892,1.27886 -4.27099,9.9575 -0.92643,2.6514 -1.3261,2.8041 -5.49735,2.10059 -4.35315,-0.73414 -11.16827,-2.33911 -12.3331,-2.90445 -1.87666,-0.91077 -1.9174,-1.41654 -0.94392,-11.71852 l 0.17777,-1.8814 -0.93347,-0.56338 c -0.51343,-0.30982 -1.80515,-1.20491 -2.87049,-1.98909 l -1.93702,-1.42573 -2.49561,1.07291 c -1.37257,0.59014 -3.91448,1.74097 -5.64869,2.55747 -2.06891,0.97405 -3.39273,1.45824 -3.85019,1.40774 -1.03264,-0.11327 -2.16179,-1.58539 -6.23425,-8.12791 -4.019227,-6.45699 -4.095636,-6.66856 -2.89416,-8.01344 0.37779,-0.42264 2.32596,-2.18177 4.32945,-3.90902 4.92795,-4.24823 4.71514,-4.01679 4.43943,-4.82804 -0.12955,-0.38223 -0.38381,-1.792 -0.56443,-3.13307 l -0.32837,-2.43837 -1.19001,-0.49753 c -0.65446,-0.27364 -3.14715,-1.15894 -5.539231,-1.9674 -2.392121,-0.80841 -4.593169,-1.64337 -4.891276,-1.85545 -1.034884,-0.73627 -0.936476,-2.23331 0.673427,-10.24356 0.626249,-3.11575 1.892211,-7.14396 2.423037,-7.7098 0.260396,-0.27781 0.755185,-0.59994 1.099239,-0.71628 0.523206,-0.17664 6.072804,0.17551 11.012094,0.69867 l 1.24727,0.13211 1.26219,-1.90264 c 0.69422,-1.0464 1.4996,-2.15486 1.7898,-2.46311 0.61119,-0.64976 0.53759,-1.19261 -0.43047,-3.16766 -1.45561,-2.96979 -3.86694,-8.85427 -3.93845,-9.61115 -0.0408,-0.43262 0.0478,-0.953 0.1971,-1.15645 0.14928,-0.20342 3.34478,-2.341469 7.10115,-4.751207 5.58498,-3.582638 6.94425,-4.372557 7.45787,-4.333178 0.71863,0.05509 1.84022,1.175662 6.31084,6.305049 1.63738,1.878696 3.01107,3.419756 3.05261,3.424636 0.0417,0.005 1.27013,-0.22476 2.73014,-0.51013 1.46001,-0.28546 2.83649,-0.50319 3.05883,-0.48371 0.28179,0.0246 1.05668,-1.727369 2.55716,-5.78156 2.37348,-6.412743 2.61818,-6.761173 4.66303,-6.639345 1.72661,0.102836 11.731,2.290989 13.74684,3.006678 2.66415,0.945861 2.73093,1.141114 2.27609,6.652619 -0.21156,2.563528 -0.42117,5.238038 -0.46582,5.943458 l -0.0812,1.28255 2.59982,1.77851 c 1.4299,0.97819 2.6666,1.88242 2.74825,2.00939 0.16165,0.25144 0.59418,0.10197 3.34577,-1.15624 6.48873,-2.96701 8.46497,-3.72213 9.28005,-3.54581 0.81692,0.17669 0.84979,0.2209 5.22088,7.01919 l 4.3988,6.84139 -0.19668,1.0087 c -0.11015,0.56478 -0.43532,1.16213 -0.73899,1.35738 -0.29821,0.19187 -2.16829,1.81025 -4.15587,3.5963 -1.98712,1.78658 -3.82903,3.43032 -4.09242,3.65362 -0.39552,0.33587 -0.3934,0.95906 0.0136,3.59169 l 0.49258,3.18572 1.1211,0.47816 c 1.06849,0.4557 6.30435,2.30032 9.05257,3.18929 2.63726,0.85302 2.70198,1.93278 0.66758,11.13895 -1.3125,5.93935 -2.07961,7.88405 -3.26816,8.28521 -0.62084,0.20959 -4.85742,-0.0559 -9.98964,-0.62593 -2.29913,-0.25532 -2.78672,-0.1296 -3.1912,0.82298 -0.13572,0.31962 -0.81515,1.3483 -1.50988,2.28586 -0.69468,0.93756 -1.28936,1.80211 -1.32145,1.92125 -0.032,0.11916 0.79085,2.00618 1.82876,4.19343 2.44101,5.14403 3.19889,7.28474 2.96316,8.36959 l -0.1856,0.85392 -6.78547,4.36282 c -6.71656,4.31858 -6.79466,4.36164 -7.6876,4.23515 z"
       id="path6896-7-8-8-6-6-5"
       sodipodi:nodetypes="csscsssssscsscsssssssscsscsscscssssscsscssssssscssssscssssscsssssssssscscc"
       inkscape:export-filename="C:\Users\mario\OneDrive\Documents\Courses\Web development\CSS - MySite\Images\gear.png"
       inkscape:export-xdpi="300"
       inkscape:export-ydpi="300" />
  </g>
  <script
     id="script24">/*svgflipbook*/function count(x){return x.length}function doall(x){return x}function mapIndexed(f,a){return a.map(function(l,i){return f(i,l)})}function isEqual(a,b){return a==b}function partial(fn){var slice=Array.prototype.slice;var stored_args=slice.call(arguments,1);return function(){var new_args=slice.call(arguments);var args=stored_args.concat(new_args);return fn.apply(null,args)}}exports={};setTimeout(function(){animate()},0);{var _ns_={id:&quot;inkscape-animation-assistant.animation&quot;,doc:void 0}}var inkscapeLabelRe=exports.inkscapeLabelRe=/\((\d+)\)/;var illustratorLabelRe=exports.illustratorLabelRe=/_x28_(\d+)_x29_/;var layerGetDelay=exports.layerGetDelay=function layerGetDelay(layer){return function(){var defaultø1=100;return layer?function(){var labelø1=layer.getAttribute(&quot;inkscape:label&quot;)||layer.getAttribute(&quot;id&quot;);var delayparameterInkscapeø1=labelø1?labelø1.match(inkscapeLabelRe):void 0;var delayparameterIllustratorø1=labelø1?labelø1.match(illustratorLabelRe):void 0;var delayparameterø1=delayparameterInkscapeø1||delayparameterIllustratorø1;return delayparameterø1?parseInt(delayparameterø1[1]):defaultø1}.call(this):defaultø1}.call(this)};var layerIsStatic=exports.layerIsStatic=function layerIsStatic(layer){return layer?!isEqual((layer.getAttribute(&quot;inkscape:label&quot;)||layer.getAttribute(&quot;id&quot;)||&quot;&quot;).indexOf(&quot;tatic&quot;),-1):void 0};var layersGetAll=exports.layersGetAll=function layersGetAll(container){return Array.from(document.querySelectorAll(container))};var flipLayers=exports.flipLayers=function flipLayers(cb,layers){return doall(mapIndexed(function(i,l){return l.style[&quot;display&quot;]=cb(i,l)?&quot;inline&quot;:&quot;none&quot;},layers))};var animate=exports.animate=function animate(isFnIsPlaying,frame,container){return function(){var isFnIsPlayingø2=isFnIsPlaying||function(){return true};var layersø1=layersGetAll(container||&quot;svg &gt; g&quot;);var lengthø1=count(layersø1);var currentFrameø1=(frame||0)%lengthø1;var layerø1=layersø1[currentFrameø1||0];var frameTimeø1=layerGetDelay(layerø1);var staticø1=layerIsStatic(layerø1);return isFnIsPlayingø2()?function(){!staticø1||!frame?flipLayers(function(i,l){return isEqual(i,currentFrameø1)||layerIsStatic(l)},layersø1):void 0;return setTimeout(partial(animate,isFnIsPlayingø2,currentFrameø1+1,container),frameTimeø1)}():void 0}.call(this)};</script>
</svg>
